:FULLY-SPECIFIED
:FORCE-ALL-JOINTS-BE-3DOF
:DEGREES
442
root 2.00349 15.5707 -8.85266 4.41479 13.4881 -12.9457
lfemur -52.6042 22.793 -9.67625
ltibia 61.0449 0 0
lfoot -17.9692 0.0084643 0
ltoes 1.98413 0 0
rfemur -11.8493 -11.868 14.2786
rtibia 41.606 0 0
rfoot -5.81558 -15.5642 0
rtoes -38.6548 0 0
lowerback 4.18894 1.60702 5.42671
upperback 0.703396 2.38957 1.32267
thorax -1.48509 1.16814 -1.81561
lowerneck -6.9748 -1.07881 4.61084
upperneck 0.770681 -1.81343 0.0131787
head 1.4037 -0.878546 -0.831464
lclavicle -3.86609e-14 3.29059e-15 0
lhumerus -42.3605 -23.2527 100.3
lradius 52.8975 0 0
lwrist 5.74836 0 0
lhand -27.3736 -7.50564 0
lfingers 7.12502 0 0
lthumb -0.780954 22.4575 0
rclavicle -3.86609e-14 3.29059e-15 0
rhumerus -48.6864 -0.371572 -86.6914
rradius 65.3923 0 0
rwrist 10.5454 0 0
rhand -26.3883 -22.8688 0
rfingers 7.12502 0 0
rthumb 0.170614 -772.837 0
443
root 1.92962 15.5534 -8.79092 4.53368 15.1278 -13.3211
lfemur -53.3723 23.213 -9.65229
ltibia 61.4436 0 0
lfoot -18.0673 -0.402466 0
ltoes 1.95851 0 0
rfemur -10.7708 -11.4556 13.9214
rtibia 40.2316 0 0
rfoot -6.09566 -16.0486 0
rtoes -40.8659 0 0
lowerback 4.12452 1.51036 5.6198
upperback 0.667727 2.27261 1.43701
thorax -1.48742 1.10921 -1.79647
lowerneck -7.00041 -1.20853 4.50961
upperneck 0.680589 -1.97884 0.0398514
head 1.37203 -0.963004 -0.810743
lclavicle -3.9233e-14 2.8557e-15 0
lhumerus -42.2661 -23.4336 100.486
lradius 52.9684 0 0
lwrist 5.36556 0 0
lhand -27.5657 -7.77599 0
lfingers 7.12502 0 0
lthumb -0.966513 22.1887 0
rclavicle -3.9233e-14 2.8557e-15 0
rhumerus -48.7885 -0.678511 -86.5647
rradius 65.3798 0 0
rwrist 10.6234 0 0
rhand -26.5611 -23.0578 0
rfingers 7.12502 0 0
rthumb 0.00376185 -773.027 0
444
root 1.86142 15.5375 -8.73393 4.64342 16.6413 -13.6676
lfemur -54.0814 23.6007 -9.63017
ltibia 61.8116 0 0
lfoot -18.1577 -0.781804 0
ltoes 1.93486 0 0
rfemur -9.77526 -11.0748 13.5917
rtibia 38.9628 0 0
rfoot -6.3542 -16.4958 0
rtoes -42.907 0 0
lowerback 4.06505 1.42113 5.79805
upperback 0.6348 2.16463 1.54256
thorax -1.48957 1.05481 -1.77881
lowerneck -7.02404 -1.32827 4.41617
upperneck 0.597424 -2.13153 0.0644735
head 1.34279 -1.04097 -0.791615
lclavicle -3.97611e-14 2.45425e-15 0
lhumerus -42.1789 -23.6006 100.658
lradius 53.0339 0 0
lwrist 5.01219 0 0
lhand -27.7431 -8.02555 0
lfingers 7.12502 0 0
lthumb -1.13781 21.9405 0
rclavicle -3.97611e-14 2.45425e-15 0
rhumerus -48.8827 -0.961853 -86.4478
rradius 65.3681 0 0
rwrist 10.6955 0 0
rhand -26.7206 -23.2323 0
rfingers 7.12502 0 0
rthumb -0.150262 -773.204 0
445
root 1.7994 15.5231 -8.6821 4.74323 18.0179 -13.9827
lfemur -54.7263 23.9533 -9.61005
ltibia 62.1463 0 0
lfoot -18.24 -1.1268 0
ltoes 1.91335 0 0
rfemur -8.86982 -10.7285 13.2918
rtibia 37.8089 0 0
rfoot -6.58934 -16.9026 0
rtoes -44.7633 0 0
lowerback 4.01096 1.33997 5.96017
upperback 0.604853 2.06643 1.63855
thorax -1.49153 1.00533 -1.76274
lowerneck -7.04554 -1.43717 4.33118
upperneck 0.521787 -2.2704 0.0868667
head 1.3162 -1.11188 -0.774219
lclavicle -4.02414e-14 2.08914e-15 0
lhumerus -42.0997 -23.7525 100.813
lradius 53.0935 0 0
lwrist 4.69082 0 0
lhand -27.9044 -8.25252 0
lfingers 7.12502 0 0
lthumb -1.29359 21.7148 0
rclavicle -4.02414e-14 2.08914e-15 0
rhumerus -48.9684 -1.21955 -86.3414
rradius 65.3576 0 0
rwrist 10.761 0 0
rhand -26.8656 -23.391 0
rfingers 7.12502 0 0
rthumb -0.290344 -773.364 0
446
root 1.74405 15.5102 -8.63584 4.83231 19.2465 -14.2639
lfemur -55.3018 24.2679 -9.59209
ltibia 62.445 0 0
lfoot -18.3135 -1.43471 0
ltoes 1.89415 0 0
rfemur -8.0617 -10.4194 13.0242
rtibia 36.779 0 0
rfoot -6.7992 -17.2655 0
rtoes -46.4201 0 0
lowerback 3.96269 1.26755 6.10485
upperback 0.578126 1.97879 1.72422
thorax -1.49328 0.96117 -1.74841
lowerneck -7.06473 -1.53437 4.25534
upperneck 0.454281 -2.39434 0.106853
head 1.29247 -1.17516 -0.758693
lclavicle -4.067e-14 1.76328e-15 0
lhumerus -42.0289 -23.8881 100.953
lradius 53.1466 0 0
lwrist 4.40399 0 0
lhand -28.0484 -8.45509 0
lfingers 7.12502 0 0
lthumb -1.43263 21.5133 0
rclavicle -4.067e-14 1.76328e-15 0
rhumerus -49.0449 -1.44954 -86.2465
rradius 65.3481 0 0
rwrist 10.8194 0 0
rhand -26.9951 -23.5326 0
rfingers 7.12502 0 0
rthumb -0.415366 -773.507 0
447
root 1.69585 15.4989 -8.59557 4.90987 20.3161 -14.5088
lfemur -55.8029 24.5419 -9.57646
ltibia 62.7051 0 0
lfoot -18.3774 -1.70279 0
ltoes 1.87743 0 0
rfemur -7.35813 -10.1504 12.7912
rtibia 35.8823 0 0
rfoot -6.98191 -17.5816 0
rtoes -47.8625 0 0
lowerback 3.92067 1.20449 6.23082
upperback 0.554857 1.90248 1.79881
thorax -1.4948 0.922724 -1.73592
lowerneck -7.08143 -1.61899 4.1893
upperneck 0.395508 -2.50225 0.124253
head 1.27181 -1.23026 -0.745176
lclavicle -4.10432e-14 1.47957e-15 0
lhumerus -41.9674 -24.0061 101.074
lradius 53.1929 0 0
lwrist 4.15426 0 0
lhand -28.1737 -8.63145 0
lfingers 7.12502 0 0
lthumb -1.55368 21.3379 0
rclavicle -4.10432e-14 1.47957e-15 0
rhumerus -49.1115 -1.64977 -86.1638
rradius 65.3399 0 0
rwrist 10.8703 0 0
rhand -27.1078 -23.6559 0
rfingers 7.12502 0 0
rthumb -0.524215 -773.632 0
